<?xml version="1.0" encoding="UTF-8" standalone="no"?>
<!-- Created with Inkscape (http://www.inkscape.org/) -->

<svg
   width="32.233368mm"
   height="13.362225mm"
   viewBox="0 0 32.233368 13.362225"
   version="1.1"
   id="svg1"
   xmlns="http://www.w3.org/2000/svg"
   xmlns:svg="http://www.w3.org/2000/svg"
   xmlns:rdf="http://www.w3.org/1999/02/22-rdf-syntax-ns#"
   xmlns:cc="http://creativecommons.org/ns#"
   xmlns:dc="http://purl.org/dc/elements/1.1/"
   xmlns:ns13="http://www.iki.fi/pav/software/textext/">
  <defs
     id="defs1" />
  <metadata
     id="metadata1">
    <rdf:RDF>
      <cc:Work
         rdf:about="">
        <dc:format>image/svg+xml</dc:format>
        <dc:type
           rdf:resource="http://purl.org/dc/dcmitype/StillImage" />
      </cc:Work>
    </rdf:RDF>
  </metadata>
  <g
     id="g1166"
     clip-path="none"
     transform="translate(-160.95391,-96.861119)">
    <g
       id="g1165"
       transform="translate(-31.2568,2.73782)">
      <g
         id="layer1"
         style="display:inline">
        <g
           id="g200"
           transform="matrix(0.3237,0,0,0.280517,199.236,100.921)"
           clip-path="none">
          <rect
             style="opacity:1;fill:none;fill-opacity:0.398352;stroke:#ff6600;stroke-width:1.65167;stroke-linecap:round;stroke-linejoin:bevel;stroke-dasharray:none;paint-order:normal"
             id="rect41"
             width="97.926239"
             height="45.982609"
             x="-20.877253"
             y="-23.406923"
             ry="0.75828683" />
          <g
             transform="matrix(1.8732076,0,0,2.2100002,-16.568475,-20.68726)"
             ns13:version="1.10.2"
             ns13:texconverter="pdflatex"
             ns13:pdfconverter="inkscape"
             ns13:text="\\texttt{py}$\\Big|\\bdag$\\texttt{oLaNO}"
             ns13:preamble="/home/hendry/.config/inkscape/extensions/textext/default_packages.tex"
             ns13:scale="1.0000000566928784"
             ns13:alignment="middle center"
             ns13:stroke-to-path="0"
             ns13:inkscapeversion="1.4"
             ns13:jacobian_sqrt="1.1707135465176783"
             id="g14"
             style="fill:#ff6600;stroke:none">
            <defs
               id="id-3d93ebc9-3ea8-4f9f-882d-e414d7111e0e" />
            <g
               fill="#000000"
               fill-opacity="1"
               id="id-b27876d5-4fb1-452c-98e4-8c0ac7742e15"
               transform="translate(-148.837,-124.599)"
               style="fill:#ff6600;stroke:none">
              <g
                 transform="translate(148.712,136.259)"
                 id="g1"
                 style="fill:#ff6600;stroke:none">
                <path
                   d="m 1.65625,-2.625 c 0,-0.59375 0.578125,-1.125 1.203125,-1.125 0.734375,0 1.3125,0.734375 1.3125,1.59375 0,0.953125 -0.6875,1.609375 -1.390625,1.609375 -0.78125,0 -1.125,-0.875 -1.125,-1.359375 z m 0,2.171875 C 2.0625,-0.03125 2.5,0.0625 2.8125,0.0625 c 1.078125,0 2.046875,-0.953125 2.046875,-2.21875 0,-1.21875 -0.875,-2.203125 -1.9375,-2.203125 C 2.4375,-4.359375 2,-4.171875 1.65625,-3.875 1.65625,-4.15625 1.640625,-4.296875 1.25,-4.296875 H 0.53125 c -0.15625,0 -0.40625,0 -0.40625,0.3125 0,0.296875 0.25,0.296875 0.390625,0.296875 H 0.96875 v 5.296875 h -0.4375 c -0.15625,0 -0.40625,0 -0.40625,0.296875 0,0.3125 0.25,0.3125 0.390625,0.3125 h 1.59375 C 2.25,2.21875 2.5,2.21875 2.5,1.90625 2.5,1.609375 2.25,1.609375 2.09375,1.609375 h -0.4375 z m 0,0"
                   id="id-d4a67797-939d-40e8-89ec-b752e2ec0aa9"
                   style="fill:#ff6600;stroke:none" />
              </g>
              <g
                 transform="translate(153.942,136.259)"
                 id="g2"
                 style="fill:#ff6600;stroke:none">
                <path
                   d="m 4.28125,-3.6875 h 0.296875 c 0.15625,0 0.40625,0 0.40625,-0.296875 0,-0.3125 -0.234375,-0.3125 -0.40625,-0.3125 h -1.15625 c -0.15625,0 -0.40625,0 -0.40625,0.296875 0,0.3125 0.25,0.3125 0.40625,0.3125 h 0.28125 l -0.71875,2.125 C 2.84375,-1.203125 2.796875,-1.015625 2.71875,-0.703125 2.65625,-0.890625 2.578125,-1.109375 2.5,-1.296875 L 1.578125,-3.6875 h 0.25 c 0.140625,0 0.390625,0 0.390625,-0.296875 0,-0.3125 -0.234375,-0.3125 -0.390625,-0.3125 H 0.65625 c -0.15625,0 -0.390625,0 -0.390625,0.3125 0,0.296875 0.25,0.296875 0.390625,0.296875 h 0.3125 L 2.375,-0.125 c 0.046875,0.09375 0.046875,0.109375 0.046875,0.125 0,0.015625 -0.25,0.84375 -0.375,1.09375 C 1.75,1.640625 1.390625,1.65625 1.25,1.671875 c 0,-0.015625 0.046875,-0.09375 0.046875,-0.21875 0,-0.25 -0.1875,-0.4375 -0.421875,-0.4375 -0.28125,0 -0.453125,0.1875 -0.453125,0.4375 0,0.421875 0.34375,0.8125 0.828125,0.8125 1,0 1.453125,-1.3125 1.484375,-1.421875 z m 0,0"
                   id="id-9f61ed1c-ba62-4172-88da-cb5d011c449a"
                   style="fill:#ff6600;stroke:none" />
              </g>
            </g>
            <g
               fill="#000000"
               fill-opacity="1"
               id="id-10c50957-3ac3-4f8f-8a99-2e41f15317c9"
               transform="translate(-148.837,-124.599)"
               style="fill:#ff6600;stroke:none">
              <g
                 transform="translate(159.173,124.802)"
                 id="g3"
                 style="fill:#ff6600;stroke:none">
                <path
                   d="m 1.453125,5.828125 c 0,0.15625 0,0.359375 0.203125,0.359375 C 1.875,6.1875 1.875,5.984375 1.875,5.828125 V 0.15625 c 0,-0.15625 0,-0.359375 -0.203125,-0.359375 -0.21875,0 -0.21875,0.1875 -0.21875,0.359375 z m 0,0"
                   id="id-07e41888-e85b-4c3b-ad66-d1d931c4d905"
                   style="fill:#ff6600;stroke:none" />
              </g>
            </g>
            <g
               fill="#000000"
               fill-opacity="1"
               id="id-044e8cd7-65f0-45c2-a328-4da6a4d4194f"
               transform="translate(-148.837,-124.599)"
               style="fill:#ff6600;stroke:none">
              <g
                 transform="translate(159.173,130.78)"
                 id="g4"
                 style="fill:#ff6600;stroke:none">
                <path
                   d="m 1.453125,5.828125 c 0,0.15625 0,0.359375 0.203125,0.359375 C 1.875,6.1875 1.875,5.984375 1.875,5.828125 V 0.15625 c 0,-0.15625 0,-0.359375 -0.203125,-0.359375 -0.21875,0 -0.21875,0.1875 -0.21875,0.359375 z m 0,0"
                   id="id-3a66d539-f115-4c26-9baf-172b8df3031b"
                   style="fill:#ff6600;stroke:none" />
              </g>
            </g>
            <g
               fill="#000000"
               fill-opacity="1"
               id="id-239c1598-5943-408b-a00a-8758c86c3a64"
               transform="translate(-148.837,-124.599)"
               style="fill:#ff6600;stroke:none">
              <g
                 transform="translate(159.173,136.757)"
                 id="g5"
                 style="fill:#ff6600;stroke:none">
                <path
                   d="m 1.453125,5.828125 c 0,0.15625 0,0.359375 0.203125,0.359375 C 1.875,6.1875 1.875,5.984375 1.875,5.828125 V 0.15625 c 0,-0.15625 0,-0.359375 -0.203125,-0.359375 -0.21875,0 -0.21875,0.1875 -0.21875,0.359375 z m 0,0"
                   id="id-467dae24-93c0-4cca-a575-10865d424257"
                   style="fill:#ff6600;stroke:none" />
              </g>
            </g>
            <g
               fill="#000000"
               fill-opacity="1"
               id="id-04970ec5-2d76-40b1-a9c8-5c6e8809872c"
               transform="translate(-148.837,-124.599)"
               style="fill:#ff6600;stroke:none">
              <g
                 transform="translate(162.141,133.63)"
                 id="g6"
                 style="fill:#ff6600;stroke:none">
                <path
                   d="M 2.5,-6.921875 1.15625,-5.5625 1.328125,-5.390625 2.5,-6.40625 3.640625,-5.390625 3.8125,-5.5625 Z m 0,0"
                   id="id-5495b510-1f3f-4bbd-8560-12c58a5fe713"
                   style="fill:#ff6600;stroke:none" />
              </g>
            </g>
            <g
               fill="#000000"
               fill-opacity="1"
               id="id-7cf1ac37-6525-43ac-9dd4-7ba4ec571a59"
               transform="translate(-148.837,-124.599)"
               style="fill:#ff6600;stroke:none">
              <g
                 transform="translate(162.494,136.259)"
                 id="g7"
                 style="fill:#ff6600;stroke:none">
                <path
                   d="m 2.375,-6.8125 c 0,0 0,-0.109375 -0.125,-0.109375 -0.21875,0 -0.953125,0.078125 -1.21875,0.109375 -0.078125,0 -0.1875,0.015625 -0.1875,0.1875 0,0.125 0.09375,0.125 0.25,0.125 0.46875,0 0.484375,0.0625 0.484375,0.171875 0,0.0625 -0.078125,0.40625 -0.125,0.609375 l -0.828125,3.25 c -0.109375,0.5 -0.15625,0.671875 -0.15625,1.015625 0,0.9375 0.53125,1.5625 1.265625,1.5625 1.171875,0 2.40625,-1.484375 2.40625,-2.921875 0,-0.90625 -0.53125,-1.59375 -1.328125,-1.59375 -0.453125,0 -0.875,0.296875 -1.171875,0.59375 z M 1.453125,-3.046875 C 1.5,-3.265625 1.5,-3.28125 1.59375,-3.390625 2.078125,-4.03125 2.53125,-4.1875 2.796875,-4.1875 c 0.359375,0 0.625,0.296875 0.625,0.9375 0,0.59375 -0.328125,1.734375 -0.515625,2.109375 -0.328125,0.671875 -0.78125,1.03125 -1.171875,1.03125 -0.34375,0 -0.671875,-0.265625 -0.671875,-1 0,-0.203125 0,-0.390625 0.15625,-1.015625 z m 0,0"
                   id="id-bc2cdb15-549c-4dea-93ec-48b09fc22bcc"
                   style="fill:#ff6600;stroke:none" />
              </g>
            </g>
            <g
               fill="#000000"
               fill-opacity="1"
               id="id-83497f15-faa0-4e99-8990-aacaab8bd8ea"
               transform="translate(-148.837,-124.599)"
               style="fill:#ff6600;stroke:none">
              <g
                 transform="translate(166.77,132.644)"
                 id="g8"
                 style="fill:#ff6600;stroke:none">
                <path
                   d="m 1.90625,-2.90625 c 0.109375,0 0.171875,0.015625 0.390625,0.0625 0.21875,0.0625 0.390625,0.109375 0.515625,0.109375 0.28125,0 0.296875,-0.203125 0.296875,-0.265625 0,-0.0625 -0.015625,-0.28125 -0.296875,-0.28125 -0.125,0 -0.296875,0.046875 -0.515625,0.109375 -0.21875,0.0625 -0.28125,0.0625 -0.390625,0.078125 0.015625,-0.25 0.0625,-0.53125 0.09375,-0.75 0.03125,-0.140625 0.09375,-0.5 0.09375,-0.734375 0,-0.21875 -0.09375,-0.328125 -0.265625,-0.328125 -0.15625,0 -0.28125,0.078125 -0.28125,0.328125 0,0.21875 0.0625,0.578125 0.109375,0.8125 0.015625,0.078125 0.078125,0.40625 0.078125,0.671875 C 1.640625,-3.109375 1.5625,-3.109375 1.359375,-3.171875 1.140625,-3.234375 0.96875,-3.28125 0.84375,-3.28125 c -0.28125,0 -0.3125,0.21875 -0.3125,0.28125 0,0.046875 0.03125,0.265625 0.3125,0.265625 0.125,0 0.296875,-0.046875 0.515625,-0.109375 0.203125,-0.046875 0.28125,-0.0625 0.375,-0.0625 0,0.171875 -0.0625,0.390625 -0.09375,0.53125 -0.09375,0.4375 -0.09375,0.484375 -0.09375,0.84375 0,1.34375 0.140625,2.78125 0.15625,2.921875 0.015625,0.0625 0.03125,0.09375 0.125,0.09375 0.109375,0 0.109375,-0.03125 0.125,-0.125 0,-0.015625 0.046875,-0.625 0.078125,-1.046875 0.03125,-0.609375 0.0625,-1.21875 0.0625,-1.84375 0,-0.359375 0,-0.40625 -0.09375,-0.859375 -0.015625,-0.0625 -0.078125,-0.34375 -0.09375,-0.515625 z m 0,0"
                   id="id-9e6d8cb5-f9d1-4ac8-b689-b8803aea7da0"
                   style="fill:#ff6600;stroke:none" />
              </g>
            </g>
            <g
               fill="#000000"
               fill-opacity="1"
               id="id-12ba2c3e-fa71-4dee-9673-55e02621bafd"
               transform="translate(-148.837,-124.599)"
               style="fill:#ff6600;stroke:none">
              <g
                 transform="translate(170.921,136.259)"
                 id="g9"
                 style="fill:#ff6600;stroke:none">
                <path
                   d="m 4.65625,-2.15625 c 0,-1.25 -0.921875,-2.234375 -2.046875,-2.234375 -1.109375,0 -2.046875,0.984375 -2.046875,2.234375 0,1.265625 0.953125,2.21875 2.046875,2.21875 1.09375,0 2.046875,-0.953125 2.046875,-2.21875 z M 2.609375,-0.546875 C 1.875,-0.546875 1.25,-1.296875 1.25,-2.21875 c 0,-0.90625 0.65625,-1.5625 1.359375,-1.5625 0.71875,0 1.359375,0.65625 1.359375,1.5625 0,0.921875 -0.625,1.671875 -1.359375,1.671875 z m 0,0"
                   id="id-513fdcb3-6619-49c6-a5a4-9e355f17c2a9"
                   style="fill:#ff6600;stroke:none" />
              </g>
              <g
                 transform="translate(176.151,136.259)"
                 id="g10"
                 style="fill:#ff6600;stroke:none">
                <path
                   d="m 1.78125,-5.484375 h 0.546875 c 0.140625,0 0.40625,0 0.40625,-0.296875 0,-0.3125 -0.25,-0.3125 -0.40625,-0.3125 H 0.71875 c -0.15625,0 -0.40625,0 -0.40625,0.3125 0,0.296875 0.25,0.296875 0.40625,0.296875 h 0.375 v 4.875 h -0.375 c -0.15625,0 -0.40625,0 -0.40625,0.3125 C 0.3125,0 0.5625,0 0.71875,0 h 3.75 c 0.328125,0 0.390625,-0.09375 0.390625,-0.40625 v -0.890625 c 0,-0.203125 0,-0.40625 -0.328125,-0.40625 -0.359375,0 -0.359375,0.203125 -0.359375,0.40625 v 0.6875 H 1.78125 Z m 0,0"
                   id="id-5d0abb8e-4dcb-4c2a-9b99-d76a9b94b160"
                   style="fill:#ff6600;stroke:none" />
              </g>
              <g
                 transform="translate(181.382,136.259)"
                 id="g11"
                 style="fill:#ff6600;stroke:none">
                <path
                   d="M 3.65625,-0.3125 C 3.875,-0.015625 4.34375,0 4.71875,0 c 0.28125,0 0.5,0 0.5,-0.3125 0,-0.296875 -0.25,-0.296875 -0.390625,-0.296875 -0.421875,0 -0.515625,-0.046875 -0.59375,-0.078125 v -2.15625 c 0,-0.703125 -0.546875,-1.546875 -1.984375,-1.546875 -0.421875,0 -1.4375,0 -1.4375,0.734375 0,0.296875 0.203125,0.453125 0.4375,0.453125 0.15625,0 0.4375,-0.09375 0.4375,-0.453125 0,-0.078125 0.015625,-0.09375 0.21875,-0.109375 0.140625,-0.015625 0.265625,-0.015625 0.359375,-0.015625 0.75,0 1.265625,0.3125 1.265625,1.015625 -1.75,0.03125 -2.984375,0.53125 -2.984375,1.484375 0,0.6875 0.625,1.34375 1.640625,1.34375 0.375,0 1,-0.078125 1.46875,-0.375 z m -0.125,-1.859375 v 0.84375 c 0,0.21875 0,0.4375 -0.375,0.609375 -0.359375,0.171875 -0.8125,0.171875 -0.890625,0.171875 -0.625,0 -1.03125,-0.34375 -1.03125,-0.734375 0,-0.484375 0.859375,-0.859375 2.296875,-0.890625 z m 0,0"
                   id="id-ae04ac3b-0916-4c77-bbb5-23035173faa2"
                   style="fill:#ff6600;stroke:none" />
              </g>
              <g
                 transform="translate(186.612,136.259)"
                 id="g12"
                 style="fill:#ff6600;stroke:none">
                <path
                   d="M 1.890625,-5.734375 C 1.78125,-6.0625 1.625,-6.09375 1.359375,-6.09375 h -0.6875 c -0.140625,0 -0.390625,0 -0.390625,0.296875 0,0.3125 0.234375,0.3125 0.390625,0.3125 h 0.25 v 4.875 h -0.25 c -0.140625,0 -0.390625,0 -0.390625,0.296875 C 0.28125,0 0.515625,0 0.671875,0 h 1.0625 c 0.15625,0 0.40625,0 0.40625,-0.296875 0,-0.3125 -0.25,-0.3125 -0.40625,-0.3125 h -0.25 V -5.34375 H 1.5 l 1.828125,4.984375 C 3.453125,-0.015625 3.625,0 3.875,0 4.171875,0 4.296875,-0.03125 4.296875,-0.40625 v -5.078125 h 0.25 c 0.140625,0 0.390625,0 0.390625,-0.296875 0,-0.3125 -0.234375,-0.3125 -0.390625,-0.3125 h -1.0625 c -0.15625,0 -0.390625,0 -0.390625,0.3125 0,0.296875 0.25,0.296875 0.390625,0.296875 h 0.25 V -0.75 Z m 0,0"
                   id="id-c4fb2f10-37ec-44fc-9257-f6b91b8abc39"
                   style="fill:#ff6600;stroke:none" />
              </g>
              <g
                 transform="translate(191.842,136.259)"
                 id="g13"
                 style="fill:#ff6600;stroke:none">
                <path
                   d="m 4.671875,-3.046875 c 0,-2.875 -0.21875,-3.15625 -2.0625,-3.15625 -1.84375,0 -2.046875,0.265625 -2.046875,3.15625 0,2.890625 0.203125,3.15625 2.046875,3.15625 1.84375,0 2.0625,-0.265625 2.0625,-3.15625 z M 2.609375,-0.5 c -0.875,0 -1.125,-0.203125 -1.25,-0.703125 C 1.25,-1.71875 1.25,-2.578125 1.25,-3.125 c 0,-0.625 0,-1.296875 0.109375,-1.765625 0.125,-0.578125 0.4375,-0.703125 1.25,-0.703125 0.75,0 1.09375,0.09375 1.25,0.640625 0.125,0.46875 0.125,1.21875 0.125,1.828125 0,0.609375 0,1.328125 -0.109375,1.859375 C 3.765625,-0.703125 3.5,-0.5 2.609375,-0.5 Z m 0,0"
                   id="id-6b825927-5f78-4a07-b24a-bf34df6422c4"
                   style="fill:#ff6600;stroke:none" />
              </g>
            </g>
          </g>
        </g>
      </g>
    </g>
  </g>
</svg>
